<svg className="w-[30px] h-[30px] mr-1" viewBox="0 0 47 62" fill="none" xmlns="http://www.w3.org/2000/svg">
<path d="M0 3.5C0 1.84315 1.34315 0.5 3 0.5H44C45.6569 0.5 47 1.84315 47 3.5V59C47 60.6569 45.6569 62 44 62H3C1.34315 62 0 60.6569 0 59V3.5Z" fill="#89b4fa"/>
<path d="M23.3729 23.3665C23.8081 21.9651 25.1681 21 26.713 21H37.5926C38.5554 21 39.3333 21.7341 39.3333 22.6427C39.3333 23.5513 38.5554 24.2854 37.5926 24.2854H26.713L20.9848 42.8168C20.789 43.4482 20.2178 43.9051 19.527 43.9872C18.8361 44.0693 18.1616 43.7511 17.8134 43.1864L12.2213 34.1414H9.74074C8.77789 34.1414 8 33.4073 8 32.4987C8 31.5901 8.77789 30.8561 9.74074 30.8561H12.2213C13.4616 30.8561 14.6039 31.4772 15.2295 32.4885L18.7763 38.2276L23.3729 23.3665Z" fill="white"/>
</svg>